<svg xmlns="http://www.w3.org/2000/svg" width="32" height="32" viewBox="0 0 32 32">
  <path d="M16,0a16,16,0,0,0-5.831,30.9,15.3,15.3,0,0,1,.056-4.588c.291-1.249,1.876-7.953,1.876-7.953a5.779,5.779,0,0,1-.479-2.376c0-2.224,1.289-3.885,2.895-3.885a2.01,2.01,0,0,1,2.024,2.253c0,1.372-.873,3.424-1.325,5.327a2.324,2.324,0,0,0,2.369,2.892c2.844,0,5.029-3,5.029-7.327a6.316,6.316,0,0,0-6.683-6.509,6.925,6.925,0,0,0-7.224,6.943A6.217,6.217,0,0,0,9.9,19.325a.481.481,0,0,1,.111.46L9.565,21.6c-.071.293-.232.356-.536.215-2-.931-3.248-3.852-3.248-6.2,0-5.047,3.667-9.683,10.572-9.683,5.551,0,9.864,3.956,9.864,9.241,0,5.515-3.476,9.952-8.3,9.952a4.278,4.278,0,0,1-3.667-1.837l-1,3.8a17.8,17.8,0,0,1-1.989,4.195A16,16,0,1,0,16,0Z" fill="#fff"/>
</svg>
