<svg xmlns="http://www.w3.org/2000/svg" xmlns:xlink="http://www.w3.org/1999/xlink" width="31.999" height="32" viewBox="0 0 31.999 32">
  <defs>
    <clipPath>
      <path d="M0,0H32V32H0Z" transform="translate(0)" fill="none"/>
    </clipPath>
  </defs>
  <g transform="translate(0)" clip-path="url(#clip-path)">
    <path d="M16,32A16,16,0,0,1,4.687,4.687,16,16,0,1,1,27.314,27.314,15.9,15.9,0,0,1,16,32Zm-8.666-9.47h0A10.861,10.861,0,0,0,13.2,24.252a10.5,10.5,0,0,0,7.811-3.243,11.282,11.282,0,0,0,3.076-8.149A7.652,7.652,0,0,0,26,10.875a7.656,7.656,0,0,1-2.2.6A3.837,3.837,0,0,0,25.484,9.36a7.663,7.663,0,0,1-2.433.93,3.848,3.848,0,0,0-2.795-1.21,3.834,3.834,0,0,0-3.732,4.7,10.907,10.907,0,0,1-7.893-4A3.839,3.839,0,0,0,9.816,14.9a3.809,3.809,0,0,1-1.733-.479,3.843,3.843,0,0,0,3.072,3.8,3.826,3.826,0,0,1-1.006.134,3.9,3.9,0,0,1-.726-.069A3.836,3.836,0,0,0,13,20.946,7.743,7.743,0,0,1,8.25,22.585,7.838,7.838,0,0,1,7.334,22.531Z" transform="translate(0.001)" fill="#fff"/>
  </g>
</svg>
