<?xml version="1.0" encoding="UTF-8"?>
<svg width="32px" height="32px" viewBox="0 0 32 32" version="1.1" xmlns="http://www.w3.org/2000/svg" xmlns:xlink="http://www.w3.org/1999/xlink">
    <title>youtube</title>
    <g stroke="none" stroke-width="1" fill="none" fill-rule="evenodd">
        <g transform="translate(-538.000000, -18.000000)" fill="#FFFFFF" fill-rule="nonzero">
            <g transform="translate(394.000000, 18.000000)">
                <g transform="translate(144.000000, 0.000000)">
                    <path d="M16,0 C7.164,0 0,7.164 0,16 C0,24.836 7.164,32 16,32 C24.836,32 32,24.836 32,16 C32,7.164 24.836,0 16,0 Z M21.9213333,22.5226667 C19.1186667,22.7146667 12.876,22.7146667 10.0773333,22.5226667 C7.04266667,22.3146667 6.68933333,20.8293333 6.66666667,16 C6.68933333,11.1613333 7.04666667,9.68533333 10.0773333,9.47733333 C12.876,9.28533333 19.12,9.28533333 21.9213333,9.47733333 C24.9573333,9.68533333 25.3093333,11.1706667 25.3333333,16 C25.3093333,20.8386667 24.9533333,22.3146667 21.9213333,22.5226667 Z M13.3333333,12.8773333 L19.8893333,15.9946667 L13.3333333,19.1226667 L13.3333333,12.8773333 L13.3333333,12.8773333 Z"></path>
                </g>
            </g>
        </g>
    </g>
</svg>
